<svg width="64" height="64" viewBox="0 0 64 64" fill="none" xmlns="http://www.w3.org/2000/svg">
<rect x="0.5" y="0.5" width="63" height="63" fill="black"/>
<path d="M8.77295 26.947V25.697H17.5002V26.947H13.8411V37.3333H12.432V26.947H8.77295Z" fill="#DCEDF3"/>
<path d="M21.7729 37.5152C20.9851 37.5152 20.2938 37.3277 19.6991 36.9527C19.1082 36.5777 18.6461 36.053 18.3127 35.3788C17.9832 34.7045 17.8184 33.9167 17.8184 33.0152C17.8184 32.1061 17.9832 31.3125 18.3127 30.6345C18.6461 29.9564 19.1082 29.4299 19.6991 29.0549C20.2938 28.6799 20.9851 28.4924 21.7729 28.4924C22.5608 28.4924 23.2502 28.6799 23.8411 29.0549C24.4358 29.4299 24.898 29.9564 25.2275 30.6345C25.5608 31.3125 25.7275 32.1061 25.7275 33.0152C25.7275 33.9167 25.5608 34.7045 25.2275 35.3788C24.898 36.053 24.4358 36.5777 23.8411 36.9527C23.2502 37.3277 22.5608 37.5152 21.7729 37.5152ZM21.7729 36.3106C22.3714 36.3106 22.8639 36.1572 23.2502 35.8504C23.6366 35.5436 23.9226 35.1402 24.1082 34.6402C24.2938 34.1402 24.3866 33.5985 24.3866 33.0152C24.3866 32.4318 24.2938 31.8883 24.1082 31.3845C23.9226 30.8807 23.6366 30.4735 23.2502 30.1629C22.8639 29.8523 22.3714 29.697 21.7729 29.697C21.1745 29.697 20.682 29.8523 20.2957 30.1629C19.9093 30.4735 19.6233 30.8807 19.4377 31.3845C19.2521 31.8883 19.1593 32.4318 19.1593 33.0152C19.1593 33.5985 19.2521 34.1402 19.4377 34.6402C19.6233 35.1402 19.9093 35.5436 20.2957 35.8504C20.682 36.1572 21.1745 36.3106 21.7729 36.3106Z" fill="#DCEDF3"/>
<path d="M31.0698 37.5152C30.3426 37.5152 29.7005 37.3314 29.1437 36.964C28.5869 36.5928 28.1513 36.0701 27.8369 35.3958C27.5225 34.7178 27.3653 33.9167 27.3653 32.9924C27.3653 32.0758 27.5225 31.2803 27.8369 30.6061C28.1513 29.9318 28.5888 29.411 29.1494 29.0436C29.71 28.6761 30.3577 28.4924 31.0926 28.4924C31.6607 28.4924 32.1096 28.5871 32.4391 28.7765C32.7725 28.9621 33.0263 29.1742 33.2005 29.4129C33.3785 29.6477 33.5168 29.8409 33.6153 29.9924H33.7289V25.697H35.0698V37.3333H33.7744V35.9924H33.6153C33.5168 36.1515 33.3766 36.3523 33.1948 36.5947C33.013 36.8333 32.7535 37.0473 32.4164 37.2367C32.0793 37.4223 31.6304 37.5152 31.0698 37.5152ZM31.2516 36.3106C31.7895 36.3106 32.2441 36.1705 32.6153 35.8902C32.9865 35.6061 33.2687 35.214 33.4619 34.714C33.6551 34.2102 33.7516 33.6288 33.7516 32.9697C33.7516 32.3182 33.6569 31.7481 33.4676 31.2595C33.2782 30.767 32.9979 30.3845 32.6266 30.1117C32.2554 29.8352 31.7971 29.697 31.2516 29.697C30.6835 29.697 30.21 29.8428 29.8312 30.1345C29.4562 30.4223 29.174 30.8144 28.9846 31.3106C28.799 31.803 28.7062 32.3561 28.7062 32.9697C28.7062 33.5909 28.8009 34.1553 28.9903 34.6629C29.1835 35.1667 29.4676 35.5682 29.8426 35.8674C30.2213 36.1629 30.691 36.3106 31.2516 36.3106Z" fill="#DCEDF3"/>
<path d="M41.2573 37.5152C40.4694 37.5152 39.7782 37.3277 39.1835 36.9527C38.5926 36.5777 38.1304 36.053 37.7971 35.3788C37.4676 34.7045 37.3028 33.9167 37.3028 33.0152C37.3028 32.1061 37.4676 31.3125 37.7971 30.6345C38.1304 29.9564 38.5926 29.4299 39.1835 29.0549C39.7782 28.6799 40.4694 28.4924 41.2573 28.4924C42.0452 28.4924 42.7346 28.6799 43.3255 29.0549C43.9202 29.4299 44.3823 29.9564 44.7119 30.6345C45.0452 31.3125 45.2119 32.1061 45.2119 33.0152C45.2119 33.9167 45.0452 34.7045 44.7119 35.3788C44.3823 36.053 43.9202 36.5777 43.3255 36.9527C42.7346 37.3277 42.0452 37.5152 41.2573 37.5152ZM41.2573 36.3106C41.8558 36.3106 42.3482 36.1572 42.7346 35.8504C43.121 35.5436 43.4069 35.1402 43.5926 34.6402C43.7782 34.1402 43.871 33.5985 43.871 33.0152C43.871 32.4318 43.7782 31.8883 43.5926 31.3845C43.4069 30.8807 43.121 30.4735 42.7346 30.1629C42.3482 29.8523 41.8558 29.697 41.2573 29.697C40.6588 29.697 40.1664 29.8523 39.7801 30.1629C39.3937 30.4735 39.1077 30.8807 38.9221 31.3845C38.7365 31.8883 38.6437 32.4318 38.6437 33.0152C38.6437 33.5985 38.7365 34.1402 38.9221 34.6402C39.1077 35.1402 39.3937 35.5436 39.7801 35.8504C40.1664 36.1572 40.6588 36.3106 41.2573 36.3106Z" fill="#DCEDF3"/>
<path d="M53.4406 30.5606L52.236 30.9015C52.1603 30.7008 52.0485 30.5057 51.9008 30.3163C51.7569 30.1231 51.5599 29.964 51.3099 29.839C51.0599 29.714 50.7398 29.6515 50.3497 29.6515C49.8156 29.6515 49.3705 29.7746 49.0144 30.0208C48.6622 30.2633 48.486 30.572 48.486 30.947C48.486 31.2803 48.6072 31.5436 48.8497 31.7367C49.0921 31.9299 49.4709 32.0909 49.986 32.2197L51.2815 32.5379C52.0618 32.7273 52.6432 33.017 53.0258 33.4072C53.4084 33.7936 53.5997 34.2917 53.5997 34.9015C53.5997 35.4015 53.4557 35.8485 53.1678 36.2424C52.8837 36.6364 52.486 36.947 51.9747 37.1742C51.4633 37.4015 50.8686 37.5152 50.1906 37.5152C49.3004 37.5152 48.5637 37.322 47.9803 36.9356C47.397 36.5492 47.0277 35.9848 46.8724 35.2424L48.1451 34.9242C48.2663 35.3939 48.4955 35.7462 48.8326 35.9811C49.1735 36.2159 49.6186 36.3333 50.1678 36.3333C50.7928 36.3333 51.2891 36.2008 51.6565 35.9356C52.0277 35.6667 52.2133 35.3447 52.2133 34.9697C52.2133 34.6667 52.1072 34.4129 51.8951 34.2083C51.683 34 51.3572 33.8447 50.9178 33.7424L49.4633 33.4015C48.664 33.2121 48.0769 32.9186 47.7019 32.5208C47.3307 32.1193 47.1451 31.6174 47.1451 31.0152C47.1451 30.5227 47.2834 30.0871 47.5599 29.7083C47.8402 29.3295 48.2209 29.0322 48.7019 28.8163C49.1868 28.6004 49.736 28.4924 50.3497 28.4924C51.2133 28.4924 51.8913 28.6818 52.3837 29.0606C52.88 29.4394 53.2322 29.9394 53.4406 30.5606Z" fill="#DCEDF3"/>
<rect x="0.5" y="0.5" width="63" height="63" stroke="#DCEDF3"/>
</svg>
